<?xml version="1.0" encoding="utf-8"?><svg xml:space="preserve" viewBox="0 0 100 100" y="0" x="0" xmlns="http://www.w3.org/2000/svg" id="Layer_1" version="1.1" width="200px" height="200px" xmlns:xlink="http://www.w3.org/1999/xlink" style="width:100%;height:100%;background-size:initial;background-repeat-y:initial;background-repeat-x:initial;background-position-y:initial;background-position-x:initial;background-origin:initial;background-image:initial;background-color:rgba(255, 255, 255, 0);background-clip:initial;background-attachment:initial;animation-play-state:paused" ><g class="ldl-scale" style="transform-origin:50% 50%;transform:rotate(0deg) scale(0.8, 0.8);animation-play-state:paused" ><path fill="#053391" d="M50 10c-22.091 0-40 17.909-40 40h40V10z" style="fill:rgb(5, 51, 145);animation-play-state:paused" ></path>
<path fill="#d62217" d="M10 50c0 22.091 17.909 40 40 40s40-17.909 40-40H10z" style="fill:rgb(214, 34, 23);animation-play-state:paused" ></path>
<path fill="#f7f7f7" d="M50 10v40h40c0-22.091-17.909-40-40-40z" style="fill:rgb(247, 247, 247);animation-play-state:paused" ></path>
<path d="M36.633 35.18l5.878-4.27h-7.266L33 24l-2.245 6.91h-7.266l5.878 4.27-2.245 6.91L33 37.82l5.878 4.27z" fill="#fff" style="fill:rgb(255, 255, 255);animation-play-state:paused" ></path>
<path d="M10 10h40v40H10z" fill="none" style="animation-play-state:paused" ></path>
<metadata xmlns:d="https://loading.io/stock/" style="animation-play-state:paused" ><d:name style="animation-play-state:paused" >chile</d:name>
<d:tags style="animation-play-state:paused" >chile,national flag,country,nation symbol</d:tags>
<d:license style="animation-play-state:paused" >by</d:license>
<d:slug style="animation-play-state:paused" >ia67oa</d:slug></metadata></g><!-- generated by https://loading.io/ --></svg>