<?xml version="1.0" encoding="utf-8"?><svg xml:space="preserve" viewBox="0 0 100 100" y="0" x="0" xmlns:xlink="http://www.w3.org/1999/xlink" xmlns="http://www.w3.org/2000/svg" id="圖層_1" version="1.1" width="200px" height="200px" style="width:100%;height:100%;background-size:initial;background-repeat-y:initial;background-repeat-x:initial;background-position-y:initial;background-position-x:initial;background-origin:initial;background-image:initial;background-color:rgba(255, 255, 255, 0);background-clip:initial;background-attachment:initial;animation-play-state:paused" ><g class="ldl-scale" style="transform-origin:50% 50%;transform:rotate(0deg) scale(0.8, 0.8);animation-play-state:paused" ><g style="animation-play-state:paused" ><defs style="animation-play-state:paused" ><circle r="40" cy="50" cx="50" id="SVGID_3_" style="animation-play-state:paused" ></circle></defs>
<clipPath id="SVGID_2_" style="animation-play-state:paused" ><use overflow="visible" xlink:href="#SVGID_3_" style="animation-play-state:paused" ></use></clipPath>
<path d="M10 10h80v7.5H10z" fill="#f7f7f7" clip-path="url(#SVGID_2_)" style="fill:rgb(247, 247, 247);animation-play-state:paused" ></path>
<path d="M10 30h80v40H10z" fill="#f7f7f7" clip-path="url(#SVGID_2_)" style="fill:rgb(247, 247, 247);animation-play-state:paused" ></path>
<path d="M10 82.5h80V90H10z" fill="#f7f7f7" clip-path="url(#SVGID_2_)" style="fill:rgb(247, 247, 247);animation-play-state:paused" ></path>
<path d="M10 17.5h80V30H10z" fill="#0038b8" clip-path="url(#SVGID_2_)" style="fill:rgb(0, 56, 184);animation-play-state:paused" ></path>
<path d="M10 70h80v12.5H10z" fill="#0038b8" clip-path="url(#SVGID_2_)" style="fill:rgb(0, 56, 184);animation-play-state:paused" ></path>
<path fill="#0038b8" clip-path="url(#SVGID_2_)" d="M63.412 42.256H54.47L50 34.513l-4.471 7.744h-8.942L41.058 50l-4.471 7.744h8.942L50 65.487l4.471-7.743h8.942L58.941 50l4.471-7.744zM55 56.827l3.412-5.91 3.412 5.91H55zm-5 6.827l-3.412-5.91h6.825L50 63.654zm-11.825-6.827l3.412-5.91L45 56.827h-6.825zM45 43.173l-3.412 5.91-3.412-5.91H45zm5-6.827l3.412 5.91h-6.825L50 36.346zM57.883 50l-3.942 6.827h-7.883L42.117 50l3.942-6.827h7.883L57.883 50zM55 43.173h6.825l-3.412 5.91L55 43.173z" style="fill:rgb(0, 56, 184);animation-play-state:paused" ></path></g>
<metadata xmlns:d="https://loading.io/stock/" style="animation-play-state:paused" ><d:name style="animation-play-state:paused" >israel</d:name>
<d:tags style="animation-play-state:paused" >israel,national flag,country,nation symbol</d:tags>
<d:license style="animation-play-state:paused" >by</d:license>
<d:slug style="animation-play-state:paused" >47emyu</d:slug></metadata></g><!-- generated by https://loading.io/ --></svg>