<?xml version="1.0" encoding="utf-8"?><svg xml:space="preserve" viewBox="0 0 100 100" y="0" x="0" xmlns:xlink="http://www.w3.org/1999/xlink" xmlns="http://www.w3.org/2000/svg" id="Layer_1" version="1.1" width="200px" height="200px" style="width:100%;height:100%;background-size:initial;background-repeat-y:initial;background-repeat-x:initial;background-position-y:initial;background-position-x:initial;background-origin:initial;background-image:initial;background-color:rgba(255, 255, 255, 0);background-clip:initial;background-attachment:initial;animation-play-state:paused" ><g class="ldl-scale" style="transform-origin:50% 50%;transform:rotate(0deg) scale(0.8, 0.8);animation-play-state:paused" ><g style="animation-play-state:paused" ><defs style="animation-play-state:paused" ><circle r="40" cy="50" cx="50" id="SVGID_31_" style="animation-play-state:paused" ></circle></defs>
<clipPath id="SVGID_2_" style="animation-play-state:paused" ><use overflow="visible" xlink:href="#SVGID_31_" style="animation-play-state:paused" ></use></clipPath>
<path d="M10 63.333h80V90H10z" fill="#cf1f2c" clip-path="url(#SVGID_2_)" style="fill:rgb(207, 31, 44);animation-play-state:paused" ></path>
<path d="M10 36.667h80v26.667H10z" fill="#263376" clip-path="url(#SVGID_2_)" style="fill:rgb(38, 51, 118);animation-play-state:paused" ></path>
<path d="M10 10h80v26.667H10z" fill="#ffcd02" clip-path="url(#SVGID_2_)" style="fill:rgb(255, 205, 2);animation-play-state:paused" ></path>
<path d="M55.405 41.48l-.337-2.398-1.137 2.138-2.385-.42 1.682 1.742-1.137 2.138 2.177-1.062 1.682 1.743-.337-2.399 2.177-1.061z" clip-path="url(#SVGID_2_)" fill="#fff" style="fill:rgb(255, 255, 255);animation-play-state:paused" ></path>
<path d="M63.173 46.162l2.409-.254-2.098-1.21.504-2.369-1.8 1.62-2.097-1.211.985 2.213-1.8 1.62 2.409-.253.985 2.212z" clip-path="url(#SVGID_2_)" fill="#fff" style="fill:rgb(255, 255, 255);animation-play-state:paused" ></path>
<path d="M69.183 51.754l2.35.585-1.557-1.855 1.284-2.053v-.001.001l-2.246.907-1.556-1.856.169 2.416-2.246.908 2.35.586.169 2.415z" clip-path="url(#SVGID_2_)" fill="#fff" style="fill:rgb(255, 255, 255);animation-play-state:paused" ></path>
<path d="M74.098 58.142l1.908-1.491-2.42.085-.828-2.276-.668 2.328-2.42.085 2.007 1.354-.667 2.328 1.908-1.491 2.008 1.354z" clip-path="url(#SVGID_2_)" fill="#fff" style="fill:rgb(255, 255, 255);animation-play-state:paused" ></path>
<path d="M44.595 41.48l.337-2.398 1.137 2.138 2.385-.42-1.682 1.742 1.137 2.138-2.177-1.062-1.682 1.743.337-2.399-2.177-1.061z" clip-path="url(#SVGID_2_)" fill="#fff" style="fill:rgb(255, 255, 255);animation-play-state:paused" ></path>
<path d="M36.827 46.162l-2.409-.254 2.098-1.21-.504-2.369 1.8 1.62 2.097-1.211-.985 2.213 1.8 1.62-2.409-.253-.985 2.212z" clip-path="url(#SVGID_2_)" fill="#fff" style="fill:rgb(255, 255, 255);animation-play-state:paused" ></path>
<path d="M30.817 51.754l-2.35.585 1.557-1.855-1.284-2.053v-.001.001l2.246.907 1.556-1.856-.169 2.416 2.246.908-2.35.586-.169 2.415z" clip-path="url(#SVGID_2_)" fill="#fff" style="fill:rgb(255, 255, 255);animation-play-state:paused" ></path>
<path d="M25.902 58.142l-1.908-1.491 2.42.085.828-2.276.668 2.328 2.42.085-2.007 1.354.667 2.328-1.908-1.491-2.008 1.354z" clip-path="url(#SVGID_2_)" fill="#fff" style="fill:rgb(255, 255, 255);animation-play-state:paused" ></path></g>
<metadata xmlns:d="https://loading.io/stock/" style="animation-play-state:paused" ><d:name style="animation-play-state:paused" >venezuela</d:name>


<d:tags style="animation-play-state:paused" >venezuela,national flag,country,nation symbol</d:tags>


<d:license style="animation-play-state:paused" >by</d:license>


<d:slug style="animation-play-state:paused" >rxtmm6</d:slug></metadata></g><!-- generated by https://loading.io/ --></svg>